<svg xmlns="http://www.w3.org/2000/svg" width="960" height="560" viewBox="0 0 960 560">
  <rect width="960" height="560" fill="#ffffff"/>
  <text x="480" y="42" text-anchor="middle" font-family="Arial, sans-serif" font-size="26" font-weight="700" fill="#182a44">RFM Customer Count by Segment</text>
  <line x1="86" y1="460" x2="900" y2="460" stroke="#999" stroke-width="1"/>
  <line x1="86" y1="90" x2="86" y2="460" stroke="#999" stroke-width="1"/>
  <g font-family="Arial, sans-serif" font-size="12" fill="#666">
    <line x1="86" y1="460" x2="900" y2="460" stroke="#ddd"/>
    <text x="70" y="464" text-anchor="end">0</text>
    <line x1="86" y1="386" x2="900" y2="386" stroke="#ddd"/>
    <text x="70" y="390" text-anchor="end">250</text>
    <line x1="86" y1="312" x2="900" y2="312" stroke="#ddd"/>
    <text x="70" y="316" text-anchor="end">500</text>
    <line x1="86" y1="238" x2="900" y2="238" stroke="#ddd"/>
    <text x="70" y="242" text-anchor="end">750</text>
    <line x1="86" y1="164" x2="900" y2="164" stroke="#ddd"/>
    <text x="70" y="168" text-anchor="end">1000</text>
    <line x1="86" y1="90" x2="900" y2="90" stroke="#ddd"/>
    <text x="70" y="94" text-anchor="end">1250</text>
  </g>
  <text x="24" y="275" text-anchor="middle" transform="rotate(-90 24 275)" font-family="Arial, sans-serif" font-size="15" font-weight="700" fill="#222">Customer Count</text>
  <g font-family="Arial, sans-serif" font-size="12" fill="#222" text-anchor="middle">
    <rect x="112" y="129.7" width="72" height="330.3" fill="#1f5dcc"/>
    <text x="148" y="119.7" font-weight="700">1,116</text>
    <text x="148" y="488">Inactive</text>
    <rect x="228" y="163.4" width="72" height="296.6" fill="#9e9e9e"/>
    <text x="264" y="153.4">1,002</text>
    <text x="264" y="488">Regular</text>
    <rect x="344" y="176.7" width="72" height="283.3" fill="#9e9e9e"/>
    <text x="380" y="166.7">957</text>
    <text x="380" y="488">VIP</text>
    <rect x="460" y="309.6" width="72" height="150.4" fill="#9e9e9e"/>
    <text x="496" y="299.6">508</text>
    <text x="496" y="488">Loyal</text>
    <rect x="576" y="365.3" width="72" height="94.7" fill="#9e9e9e"/>
    <text x="612" y="355.3">320</text>
    <text x="612" y="486">New/Recent</text>
    <rect x="692" y="389.3" width="72" height="70.7" fill="#9e9e9e"/>
    <text x="728" y="379.3">239</text>
    <text x="728" y="488">High Spender</text>
    <rect x="808" y="403.2" width="72" height="56.8" fill="#9e9e9e"/>
    <text x="844" y="393.2">192</text>
    <text x="844" y="486">At-risk</text>
    <text x="844" y="502">High Value</text>
  </g>
</svg>
