<svg xmlns="http://www.w3.org/2000/svg" width="960" height="560" viewBox="0 0 960 560">
  <rect width="960" height="560" fill="#ffffff"/>
  <text x="480" y="42" text-anchor="middle" font-family="Arial, sans-serif" font-size="26" font-weight="700" fill="#182a44">RFM Revenue Share by Customer Segment</text>
  <line x1="86" y1="460" x2="900" y2="460" stroke="#999" stroke-width="1"/>
  <line x1="86" y1="90" x2="86" y2="460" stroke="#999" stroke-width="1"/>
  <g font-family="Arial, sans-serif" font-size="12" fill="#666">
    <line x1="86" y1="460" x2="900" y2="460" stroke="#ddd"/>
    <text x="70" y="464" text-anchor="end">0</text>
    <line x1="86" y1="367.5" x2="900" y2="367.5" stroke="#ddd"/>
    <text x="70" y="371.5" text-anchor="end">20</text>
    <line x1="86" y1="275" x2="900" y2="275" stroke="#ddd"/>
    <text x="70" y="279" text-anchor="end">40</text>
    <line x1="86" y1="182.5" x2="900" y2="182.5" stroke="#ddd"/>
    <text x="70" y="186.5" text-anchor="end">60</text>
    <line x1="86" y1="90" x2="900" y2="90" stroke="#ddd"/>
    <text x="70" y="94" text-anchor="end">80</text>
  </g>
  <text x="24" y="275" text-anchor="middle" transform="rotate(-90 24 275)" font-family="Arial, sans-serif" font-size="15" font-weight="700" fill="#222">Revenue Share (%)</text>
  <g font-family="Arial, sans-serif" font-size="12" fill="#222" text-anchor="middle">
    <rect x="112" y="151.4" width="72" height="308.6" fill="#1f5dcc"/>
    <text x="148" y="141.4" font-weight="700">66.74%</text>
    <text x="148" y="488">VIP</text>
    <rect x="228" y="410.2" width="72" height="49.8" fill="#9e9e9e"/>
    <text x="264" y="400.2">10.77%</text>
    <text x="264" y="488">Loyal</text>
    <rect x="344" y="435.1" width="72" height="24.9" fill="#9e9e9e"/>
    <text x="380" y="425.1">5.39%</text>
    <text x="380" y="486">At-risk</text>
    <text x="380" y="502">High Value</text>
    <rect x="460" y="435.3" width="72" height="24.7" fill="#9e9e9e"/>
    <text x="496" y="425.3">5.34%</text>
    <text x="496" y="488">Inactive</text>
    <rect x="576" y="436.1" width="72" height="23.9" fill="#9e9e9e"/>
    <text x="612" y="426.1">5.17%</text>
    <text x="612" y="488">High Spender</text>
    <rect x="692" y="436.5" width="72" height="23.5" fill="#9e9e9e"/>
    <text x="728" y="426.5">5.08%</text>
    <text x="728" y="488">Regular</text>
    <rect x="808" y="452.9" width="72" height="7.1" fill="#9e9e9e"/>
    <text x="844" y="442.9">1.53%</text>
    <text x="844" y="486">New/Recent</text>
  </g>
</svg>
